<svg width="32" height="32" viewBox="0 0 32 32" fill="none" xmlns="http://www.w3.org/2000/svg">
<circle cx="16" cy="16" r="16" fill="black"/>
<path d="M9.78125 21V12.5859H12.125V13.5859H12.5312L11.9766 13.8359C12.0964 13.6484 12.2917 13.4479 12.5625 13.2344C12.8385 13.0156 13.1745 12.8307 13.5703 12.6797C13.9714 12.5286 14.4271 12.4531 14.9375 12.4531C15.3385 12.4531 15.6536 12.4818 15.8828 12.5391C16.1172 12.5911 16.2812 12.651 16.375 12.7188L15.3828 15.125C15.1693 15 14.9453 14.9193 14.7109 14.8828C14.4818 14.8464 14.2734 14.8281 14.0859 14.8281C13.7057 14.8281 13.3802 14.8932 13.1094 15.0234C12.8385 15.1536 12.6276 15.3464 12.4766 15.6016C12.3255 15.8516 12.25 16.1589 12.25 16.5234V21H9.78125ZM14 23.3438L20.3359 8.01562H22.3828L16.0078 23.3438H14Z" fill="white"/>
</svg>
