<svg width="32" height="32" viewBox="0 0 32 32" fill="none" xmlns="http://www.w3.org/2000/svg">
<path d="M0 16C0 24.8366 7.16344 32 16 32C24.8366 32 32 24.8366 32 16C32 7.16344 24.8366 0 16 0C7.16344 0 0 7.16344 0 16Z" fill="#FF4500"/>
<path d="M19.255 7.54501C19.5325 8.72126 20.5888 9.59751 21.85 9.59751C23.3225 9.59751 24.5163 8.40376 24.5163 6.93126C24.5163 5.45876 23.3225 4.26501 21.85 4.26501C20.5625 4.26501 19.4888 5.17751 19.2388 6.39126C17.0825 6.62251 15.3988 8.45126 15.3988 10.6675C15.3988 10.6725 15.3988 10.6763 15.3988 10.6813C13.0538 10.78 10.9125 11.4475 9.2125 12.5013C8.58125 12.0125 7.78875 11.7213 6.92875 11.7213C4.865 11.7213 3.1925 13.3938 3.1925 15.4575C3.1925 16.955 4.0725 18.245 5.34375 18.8413C5.4675 23.1788 10.1938 26.6675 16.0075 26.6675C21.8213 26.6675 26.5538 23.175 26.6713 18.8338C27.9325 18.2338 28.805 16.9475 28.805 15.4588C28.805 13.395 27.1325 11.7225 25.0688 11.7225C24.2125 11.7225 23.4238 12.0113 22.7938 12.4963C21.0788 11.435 18.9138 10.7675 16.545 10.6788C16.545 10.675 16.545 10.6725 16.545 10.6688C16.545 9.08126 17.725 7.76376 19.255 7.54751V7.54501ZM9.0625 17.8288C9.125 16.4738 10.025 15.4338 11.0713 15.4338C12.1175 15.4338 12.9175 16.5325 12.855 17.8875C12.7925 19.2425 12.0113 19.735 10.9638 19.735C9.91625 19.735 9 19.1838 9.0625 17.8288ZM20.945 15.4338C21.9925 15.4338 22.8925 16.4738 22.9538 17.8288C23.0163 19.1838 22.0988 19.735 21.0525 19.735C20.0063 19.735 19.2238 19.2438 19.1613 17.8875C19.0988 16.5325 19.8975 15.4338 20.945 15.4338ZM19.7 20.9638C19.8963 20.9838 20.0213 21.1875 19.945 21.37C19.3013 22.9088 17.7813 23.99 16.0075 23.99C14.2338 23.99 12.715 22.9088 12.07 21.37C11.9938 21.1875 12.1188 20.9838 12.315 20.9638C13.465 20.8475 14.7088 20.7838 16.0075 20.7838C17.3063 20.7838 18.5488 20.8475 19.7 20.9638Z" fill="white"/>
</svg>
